<?xml version="1.0" encoding="utf-8"?>
<!-- Generator: Adobe Illustrator 16.0.0, SVG Export Plug-In . SVG Version: 6.00 Build 0)  -->
<!DOCTYPE svg PUBLIC "-//W3C//DTD SVG 1.1//EN" "http://www.w3.org/Graphics/SVG/1.1/DTD/svg11.dtd">
<svg version="1.1" id="レイヤー_1" xmlns="http://www.w3.org/2000/svg" xmlns:xlink="http://www.w3.org/1999/xlink" x="0px"
	 y="0px" width="595.28px" height="425.2px" viewBox="0 0 595.28 425.2" enable-background="new 0 0 595.28 425.2"
	 xml:space="preserve">
<g>
	<rect x="423.6" y="253" opacity="0" fill="#FFFFFF" width="128" height="128"/>
	<path opacity="0.1" fill="#040000" d="M551.6,304.917V381H472.24l-27.328-27.328v-58.867h-0.039v-8.242h0.077
		c-0.052-0.205-0.077-0.41-0.077-0.628c0-1.601,1.293-2.893,2.881-2.893h81.971L551.6,304.917z"/>
	<g>
		<path fill="#44494F" d="M530.827,284.018v68.669h-86.415v-60.368h-0.04v-7.709h0.081c-0.055-0.188-0.081-0.391-0.081-0.592
			c0-1.494,1.211-2.704,2.704-2.704h81.047C529.616,281.313,530.827,282.523,530.827,284.018z"/>
		<rect x="445.938" y="291.896" fill="#FFFFFF" width="83.324" height="58.998"/>
		<rect x="445.938" y="291.896" opacity="0.06" fill="#0D0D0D" width="83.324" height="3.506"/>
		<g>
			<polygon fill="#F7BFA1" points="522.451,300.896 522.451,311.373 515.418,311.373 508.426,317.805 496.961,307.262 
				490.537,313.168 484.538,313.168 484.538,300.896 			"/>
			<polygon fill="#F29B84" points="522.451,311.373 522.451,323.053 484.538,323.053 484.538,313.168 490.537,313.168 
				496.961,307.262 508.426,317.805 515.418,311.373 			"/>
			<polygon fill="#F9F8C9" points="522.451,310.756 522.451,312.103 515.758,312.103 508.44,318.813 496.941,308.268 
				490.803,313.896 484.538,313.896 484.538,312.551 490.193,312.551 496.941,306.365 508.44,316.91 515.148,310.756 			"/>
			<ellipse fill="#FEFDF0" cx="497.128" cy="307.804" rx="1.351" ry="1.317"/>
			<ellipse fill="#FEFDF0" cx="515.418" cy="311.373" rx="1.35" ry="1.318"/>
			<ellipse fill="#FEFDF0" cx="508.412" cy="317.756" rx="1.35" ry="1.318"/>
			<ellipse fill="#FEFDF0" cx="490.68" cy="312.803" rx="1.35" ry="1.318"/>
		</g>
		<g>
			<ellipse fill="#8BC66F" cx="465.617" cy="286.812" rx="2.051" ry="2.183"/>
			<ellipse fill="#F4DB6D" cx="458.159" cy="286.812" rx="2.05" ry="2.183"/>
			<ellipse fill="#E06276" cx="450.701" cy="286.812" rx="2.05" ry="2.183"/>
		</g>
		<g>
			<g>
				<rect x="453.439" y="332.911" opacity="0.5" fill="#899C99" width="12.945" height="10.808"/>
				<g opacity="0.5">
					<rect x="468.44" y="341.476" fill="#899C99" width="8.65" height="1.489"/>
					<rect x="468.44" y="333.35" fill="#899C99" width="17.868" height="1.557"/>
					<rect x="468.44" y="337.396" fill="#899C99" width="17.868" height="1.556"/>
				</g>
			</g>
			<g>
				<rect x="490.263" y="332.911" opacity="0.5" fill="#899C99" width="12.944" height="10.808"/>
				<g opacity="0.5">
					<rect x="505.264" y="341.476" fill="#899C99" width="8.65" height="1.489"/>
					<rect x="505.264" y="333.35" fill="#899C99" width="17.867" height="1.557"/>
					<rect x="505.264" y="337.396" fill="#899C99" width="17.867" height="1.556"/>
				</g>
			</g>
		</g>
		<g>
			<path fill="#F29640" d="M479.189,310.197c-0.563-2.403-1.729-4.625-3.37-6.455c-1.644-1.832-3.763-3.27-6.24-4.096
				c-0.256-0.084-0.515-0.164-0.778-0.236c-2.327-0.637-4.676-0.669-6.885-0.199c-2.611,0.555-5.024,1.814-6.967,3.631
				l10.779,10.889l13.322,3.643C479.716,314.943,479.727,312.489,479.189,310.197z"/>
			<path fill="#E8EA76" d="M479.051,317.373c0.665-2.43,0.676-4.884,0.139-7.176l-13.461,3.533l9.791,9.892
				C477.146,321.922,478.387,319.804,479.051,317.373z"/>
			<path fill="#6992A1" d="M461.088,327.623c-2.305-0.63-4.326-1.779-5.977-3.285c-0.02-0.014-0.035-0.029-0.052-0.045
				c-1.968-1.808-3.403-4.121-4.152-6.672c-0.735-2.512-0.81-5.252-0.069-7.961c0.74-2.711,2.199-5.031,4.11-6.818l10.78,10.889
				l-3.852,14.084C461.614,327.758,461.351,327.695,461.088,327.623z"/>
			<path fill="#7BCAD4" d="M461.877,327.814c2.553,0.551,5.11,0.391,7.456-0.35c0.021-0.008,0.043-0.014,0.063-0.021
				c2.32-0.743,4.432-2.055,6.123-3.821l-9.74-9.839l-0.012-0.041l-0.015,0.015l-0.024-0.026l-0.02,0.07l-10.598,10.537
				c1.65,1.506,3.672,2.655,5.977,3.285C461.351,327.695,461.614,327.758,461.877,327.814z"/>
		</g>
		<g>
			<rect x="516.895" y="324.705" fill="#82CCD3" width="5.557" height="3.43"/>
			<rect x="509.762" y="324.705" fill="#E4E78E" width="5.557" height="3.43"/>
			<rect x="502.629" y="324.705" fill="#E5A871" width="5.557" height="3.43"/>
			<rect x="495.496" y="324.705" fill="#6992A1" width="5.557" height="3.43"/>
		</g>
	</g>
</g>
</svg>
